<?xml version="1.0" encoding="iso-8859-1"?>
<!-- Generator: Adobe Illustrator 19.0.0, SVG Export Plug-In . SVG Version: 6.00 Build 0)  -->
<svg version="1.1" id="Layer_1" xmlns="http://www.w3.org/2000/svg" xmlns:xlink="http://www.w3.org/1999/xlink" x="0px" y="0px"
	 viewBox="0 0 512 512" style="enable-background:new 0 0 512 512;" xml:space="preserve">
<g>
	<g>
		<path d="M301.109,266.292c-3.375-3.375-8.846-3.375-12.222,0c-6.8,6.8-15.841,10.546-25.458,10.546
			c-9.618,0-18.658-3.745-25.459-10.546c-3.375-3.374-8.846-3.375-12.222,0c-3.375,3.375-3.375,8.847,0,12.222
			c10.065,10.065,23.447,15.608,37.681,15.608c14.234,0,27.615-5.544,37.68-15.608C304.484,275.139,304.484,269.667,301.109,266.292
			z"/>
	</g>
</g>
<g>
	<g>
		<path d="M212.133,189.16c-4.774,0-8.642,3.869-8.642,8.642v13.823c0,4.773,3.868,8.642,8.642,8.642s8.642-3.869,8.642-8.642
			v-13.823C220.775,193.028,216.906,189.16,212.133,189.16z"/>
	</g>
</g>
<g>
	<g>
		<path d="M340.595,158.274c-14.264-14.263-37.474-14.263-51.738,0c-3.376,3.375-3.376,8.847-0.001,12.222
			c3.375,3.374,8.847,3.375,12.221,0c7.526-7.526,19.771-7.526,27.297,0c1.687,1.687,3.899,2.532,6.111,2.532
			s4.424-0.843,6.112-2.532C343.971,167.121,343.971,161.649,340.595,158.274z"/>
	</g>
</g>
<g>
	<g>
		<path d="M238.004,158.274c-6.91-6.91-16.097-10.715-25.87-10.715c-9.771,0-18.96,3.805-25.869,10.715
			c-3.376,3.375-3.376,8.847-0.001,12.222c3.373,3.374,8.845,3.375,12.22,0c3.646-3.646,8.494-5.653,13.649-5.653
			c5.156,0,10.003,2.007,13.648,5.653c1.688,1.688,3.899,2.532,6.112,2.532c2.211,0,4.424-0.843,6.111-2.532
			C241.379,167.121,241.379,161.649,238.004,158.274z"/>
	</g>
</g>
<g>
	<g>
		<path d="M314.726,189.16c-4.774,0-8.642,3.869-8.642,8.642v13.823c0,4.773,3.868,8.642,8.642,8.642s8.642-3.869,8.642-8.642
			v-13.823C323.368,193.028,319.499,189.16,314.726,189.16z"/>
	</g>
</g>
<g>
	<g>
		<path d="M175.988,322.372c-2.477-4.08-7.794-5.379-11.872-2.903c-21.869,13.276-34.925,36.456-34.925,62.006v36.286
			c0,4.773,3.868,8.642,8.642,8.642s8.642-3.869,8.642-8.642v-36.286c0-19.46,9.948-37.115,26.609-47.231
			C177.164,331.768,178.464,326.453,175.988,322.372z"/>
	</g>
</g>
<g>
	<g>
		<path d="M389.032,460.589c-4.774,0-8.642,3.869-8.642,8.642v12.368H272.075V372.823c0-4.773-3.868-8.642-8.642-8.642
			c-4.774,0-8.642,3.869-8.642,8.642v108.775h-77.914c-4.774,0-8.642,3.869-8.642,8.642c0,4.773,3.868,8.642,8.642,8.642h212.156
			c4.774,0,8.642-3.869,8.642-8.642v-21.01C397.674,464.459,393.806,460.589,389.032,460.589z"/>
	</g>
</g>
<g>
	<g>
		<path d="M362.741,319.471c-4.079-2.476-9.395-1.178-11.873,2.903c-2.476,4.08-1.177,9.396,2.903,11.872
			c16.669,10.121,26.621,27.777,26.621,47.231v58.948c0,4.773,3.868,8.642,8.642,8.642s8.642-3.869,8.642-8.642v-58.948
			C397.674,355.932,384.614,332.751,362.741,319.471z"/>
	</g>
</g>
<g>
	<g>
		<path d="M276.681,176.485c-4.774,0-8.642,3.869-8.642,8.642v40.906c0,2.542-2.067,4.609-4.609,4.609s-4.609-2.067-4.609-4.609
			v-40.906c0-4.773-3.868-8.642-8.642-8.642s-8.642,3.869-8.642,8.642v40.906c0,12.071,9.822,21.893,21.893,21.893
			c12.073,0,21.893-9.821,21.893-21.893v-40.906C285.323,180.354,281.455,176.485,276.681,176.485z"/>
	</g>
</g>
<g>
	<g>
		<path d="M137.361,437.159h-36.66V85.519c0-4.773-3.868-8.642-8.642-8.642H65.941c-4.774,0-8.642,3.869-8.642,8.642v49.164
			c0,4.773,3.868,8.642,8.642,8.642c4.774,0,8.642-3.869,8.642-8.642V94.162h8.833V437.16h-8.833V163.491
			c0-4.773-3.868-8.642-8.642-8.642c-4.774,0-8.642,3.869-8.642,8.642V437.16H20.638C9.258,437.16,0,446.417,0,457.797v32.444
			c0,4.773,3.868,8.642,8.642,8.642s8.642-3.869,8.642-8.642v-32.444c0-1.849,1.505-3.353,3.353-3.353H65.94h26.118h45.302
			c1.848,0,3.353,1.504,3.353,3.353v32.444c0,4.773,3.868,8.642,8.642,8.642s8.642-3.869,8.642-8.642v-32.444
			C157.998,446.417,148.741,437.159,137.361,437.159z"/>
	</g>
</g>
<g>
	<g>
		<path d="M34.444,464.046c-4.774,0-8.642,3.869-8.642,8.642v17.553c0,4.773,3.868,8.642,8.642,8.642s8.642-3.869,8.642-8.642
			v-17.553C43.086,467.916,39.217,464.046,34.444,464.046z"/>
	</g>
</g>
<g>
	<g>
		<path d="M123.555,464.046c-4.774,0-8.642,3.869-8.642,8.642v17.553c0,4.773,3.868,8.642,8.642,8.642
			c4.774,0,8.642-3.869,8.642-8.642v-17.553C132.198,467.916,128.328,464.046,123.555,464.046z"/>
	</g>
</g>
<g>
	<g>
		<path d="M64.148,464.046c-4.774,0-8.642,3.869-8.642,8.642v17.553c0,4.773,3.868,8.642,8.642,8.642
			c4.774,0,8.642-3.869,8.642-8.642v-17.553C72.79,467.916,68.922,464.046,64.148,464.046z"/>
	</g>
</g>
<g>
	<g>
		<path d="M93.85,464.046c-4.774,0-8.642,3.869-8.642,8.642v17.553c0,4.773,3.868,8.642,8.642,8.642s8.642-3.869,8.642-8.642
			v-17.553C102.493,467.916,98.624,464.046,93.85,464.046z"/>
	</g>
</g>
<g>
	<g>
		<path d="M433.453,259.706c-15.778,0-28.616,12.837-28.616,28.615c0,15.778,12.838,28.615,28.616,28.615
			c15.778,0,28.615-12.835,28.615-28.614S449.231,259.706,433.453,259.706z M433.453,299.653c-6.249,0-11.332-5.083-11.332-11.33
			c0-6.248,5.083-11.331,11.332-11.331c6.248,0,11.33,5.083,11.33,11.331C444.784,294.57,439.701,299.653,433.453,299.653z"/>
	</g>
</g>
<g>
	<g>
		<path d="M471.479,152.928c-22.345,0-40.523,18.178-40.523,40.523s18.177,40.523,40.523,40.523
			c22.344,0,40.521-18.178,40.521-40.523C512,171.107,493.823,152.928,471.479,152.928z M471.479,216.688
			c-12.813,0-23.238-10.425-23.238-23.238s10.425-23.238,23.238-23.238c12.812,0,23.237,10.425,23.237,23.238
			C494.716,206.263,484.291,216.688,471.479,216.688z"/>
	</g>
</g>
<g>
	<g>
		<path d="M27.847,13.117C12.492,13.117,0,25.608,0,40.964s12.492,27.847,27.847,27.847c15.354,0,27.846-12.492,27.846-27.847
			S43.202,13.117,27.847,13.117z M27.847,51.527c-5.825,0-10.563-4.738-10.563-10.563s4.738-10.563,10.563-10.563
			c5.824,0,10.562,4.738,10.562,10.563C38.409,46.788,33.671,51.527,27.847,51.527z"/>
	</g>
</g>
<g>
	<g>
		<path d="M359.551,395.651h-60.492c-4.773,0-8.642,3.869-8.642,8.642v31.111c0,4.773,3.868,8.642,8.642,8.642h60.492
			c4.774,0,8.642-3.869,8.642-8.642v-31.111C368.193,399.52,364.325,395.651,359.551,395.651z M350.909,426.762h-43.207v-13.826
			h43.207V426.762z"/>
	</g>
</g>
<g>
	<g>
		<path d="M425.228,134.968c0-4.773-3.868-8.642-8.642-8.642h-32.061c-4.424-27.393-17.933-52.458-38.611-71.233
			c-22.627-20.546-51.922-31.862-82.485-31.862c-30.564,0-59.859,11.315-82.487,31.862c-22.629,20.546-36.708,48.616-39.648,79.039
			l-1.998,20.672c-17.768,1.942-31.642,17.033-31.642,35.308c0.002,15.988,10.489,29.531,25.097,33.98
			c-1.364,31.891,13.432,62.833,39.408,81.705l47.3,34.366c13.151,9.555,28.557,14.332,43.97,14.331
			c15.407-0.001,30.821-4.779,43.969-14.331l47.301-34.366c25.978-18.875,40.774-49.817,39.407-81.709
			c14.608-4.452,25.092-17.992,25.092-33.976c0-18.272-13.872-33.36-31.64-35.307l-1.082-11.194h30.108
			C421.36,143.61,425.228,139.74,425.228,134.968z M134.342,206.078c-5.624-3.11-9.402-9.093-9.402-15.966
			c0-8.096,5.306-14.969,12.621-17.345L134.342,206.078z M192.561,67.888c19.44-17.652,44.609-27.374,70.868-27.374
			c26.258,0,51.427,9.722,70.867,27.374c17.069,15.498,28.471,35.981,32.71,58.437h-58.83v-18.937
			c0-12.165-9.897-22.062-22.062-22.062h-45.371c-12.166,0-22.062,9.897-22.062,22.062v18.937h-58.83
			C164.091,103.868,175.494,83.387,192.561,67.888z M290.892,107.389v18.931h-54.926v-18.931c0-2.634,2.143-4.777,4.777-4.777
			h45.371C288.749,102.611,290.892,104.755,290.892,107.389z M344.541,291.814L297.24,326.18c-20.224,14.693-47.398,14.694-67.622,0
			l-47.3-34.366c-22.418-16.288-34.688-43.539-32.024-71.122l7.45-77.082h211.372l7.45,77.082
			C379.23,248.273,366.959,275.526,344.541,291.814z M401.916,190.112c0,6.87-3.776,12.85-9.4,15.962l-3.218-33.303
			C396.611,175.149,401.916,182.019,401.916,190.112z"/>
	</g>
</g>
<g>
	<g>
		<circle cx="474.167" cy="259.127" r="8.642"/>
	</g>
</g>
<g>
	<g>
		<circle cx="229.882" cy="386.662" r="8.642"/>
	</g>
</g>
<g>
	<g>
		<circle cx="229.882" cy="421.116" r="8.642"/>
	</g>
</g>
<g>
	<g>
		<circle cx="229.882" cy="455.592" r="8.642"/>
	</g>
</g>
<g>
	<g>
		<circle cx="30.605" cy="115.482" r="8.642"/>
	</g>
</g>
<g>
</g>
<g>
</g>
<g>
</g>
<g>
</g>
<g>
</g>
<g>
</g>
<g>
</g>
<g>
</g>
<g>
</g>
<g>
</g>
<g>
</g>
<g>
</g>
<g>
</g>
<g>
</g>
<g>
</g>
</svg>
