<?xml version="1.0" encoding="iso-8859-1"?>
<!-- Generator: Adobe Illustrator 19.0.0, SVG Export Plug-In . SVG Version: 6.00 Build 0)  -->
<svg version="1.1" id="Layer_1" xmlns="http://www.w3.org/2000/svg" xmlns:xlink="http://www.w3.org/1999/xlink" x="0px" y="0px"
	 viewBox="0 0 512 512" style="enable-background:new 0 0 512 512;" xml:space="preserve">
<g>
	<g>
		<path d="M169.994,176.334c-4.2,0-7.604,3.405-7.604,7.604v73.246c0,4.199,3.404,7.604,7.604,7.604c4.2,0,7.604-3.404,7.604-7.604
			v-73.246C177.598,179.738,174.194,176.334,169.994,176.334z"/>
	</g>
</g>
<g>
	<g>
		<path d="M169.994,307.119c-4.2,0-7.604,3.405-7.604,7.604v73.246c0,4.199,3.404,7.604,7.604,7.604c4.2,0,7.604-3.405,7.604-7.604
			v-73.246C177.598,310.523,174.194,307.119,169.994,307.119z"/>
	</g>
</g>
<g>
	<g>
		<path d="M377.363,0H134.638c-4.2,0-7.604,3.405-7.604,7.604v61.832c0,4.199,3.403,7.604,7.604,7.604s7.604-3.405,7.604-7.604
			V44.637h227.516v233.191H142.242V94.783c0-4.199-3.404-7.604-7.604-7.604s-7.604,3.405-7.604,7.604v409.613
			c0,4.199,3.403,7.604,7.604,7.604h242.724c4.2,0,7.604-3.405,7.604-7.604V7.604C384.967,3.405,381.562,0,377.363,0z
			 M142.242,29.428v-14.22h227.516v14.22H142.242z M369.758,496.792H142.242v-14.22h154.943c4.2,0,7.604-3.405,7.604-7.604
			s-3.404-7.604-7.604-7.604H142.242V293.036h227.516v174.326h-47.226c-4.2,0-7.604,3.405-7.604,7.604s3.404,7.604,7.604,7.604
			h47.226V496.792z"/>
	</g>
</g>
<g>
	<g>
		<path d="M314.819,70.987H197.183c-4.2,0-7.604,3.405-7.604,7.604v84.498c0,4.199,3.404,7.604,7.604,7.604h33.344
			c4.2,0,7.604-3.405,7.604-7.604s-3.404-7.604-7.604-7.604h-25.74v-69.29h102.426v69.29h-51.34v-0.001
			c-4.2,0-7.604,3.405-7.604,7.604s3.404,7.604,7.604,7.604h58.945c4.2,0,7.604-3.405,7.604-7.604V78.59
			C322.423,74.391,319.019,70.987,314.819,70.987z"/>
	</g>
</g>
<g>
</g>
<g>
</g>
<g>
</g>
<g>
</g>
<g>
</g>
<g>
</g>
<g>
</g>
<g>
</g>
<g>
</g>
<g>
</g>
<g>
</g>
<g>
</g>
<g>
</g>
<g>
</g>
<g>
</g>
</svg>
